<?xml version="1.0" encoding="UTF-8"?><svg id="Warstwa_2" xmlns="http://www.w3.org/2000/svg" viewBox="0 0 364.11 364.11"><defs><style>.cls-1{fill:#2c2a29;}</style></defs><g id="Warstwa_1-2"><path class="cls-1" d="M198.32,182.05L360.74,19.63c4.49-4.49,4.49-11.77,0-16.26-4.49-4.49-11.77-4.49-16.26,0L182.05,165.79,19.63,3.37C15.14-1.12,7.86-1.12,3.37,3.37S-1.12,15.14,3.37,19.63L165.79,182.05,3.37,344.47c-4.49,4.49-4.49,11.77,0,16.26,2.25,2.25,5.19,3.37,8.13,3.37s5.89-1.12,8.13-3.37L182.05,198.32l162.42,162.42c2.25,2.25,5.19,3.37,8.13,3.37s5.89-1.12,8.13-3.37c4.49-4.49,4.49-11.77,0-16.26L198.32,182.05Z"/></g></svg>