<?xml version="1.0" encoding="UTF-8"?><svg id="Warstwa_2" xmlns="http://www.w3.org/2000/svg" viewBox="0 0 735.32 735.32"><defs><style>.cls-1{fill:#833333;}.cls-2{fill:#f3eddf;}</style></defs><g id="Warstwa_1-2"><g><rect class="cls-1" width="735.32" height="735.32"/><path class="cls-2" d="M486.54,123.45c-43.27,0-83.82-11.65-118.7-31.96-34.88,20.32-75.43,31.96-118.7,31.96s-83.65-11.59-118.48-31.83V393.8c0,130.35,106.65,237,237,237h0c130.35,0,237-106.65,237-237V91.83c-34.75,20.11-75.09,31.62-118.12,31.62Zm16.5,235.94l-9.94,.47c-19.53,.78-23.66,3.01-23.66,62.24v72.57h-5.49l-.35-.4c-11.04-12.62-19.83-18.5-27.67-18.5-4.08,0-8.18,1.3-14.14,4.48-17.46,9.7-35.09,14.42-53.89,14.42-40.92,0-75.15-15.86-98.98-45.85-21.15-26.62-32.8-62.81-32.8-101.89s11.69-75.69,32.9-102.62c23.69-30.07,57.3-45.96,97.2-45.96,17.01,0,33.91,4.56,48.88,13.18l1.89,1.09c4.82,2.79,8.01,4.64,11.8,4.64,6.74,0,12.33-4.48,23-18.44l.35-.46h5.54v82.14h-6.23l-4.88-15.09c-8.81-27.52-35.14-59.66-80.35-59.66-30.06,0-53.13,14.92-68.57,44.36-12.71,24.23-19.71,58.47-19.71,96.41s7.16,71.91,20.17,96.03c15.86,29.41,39.62,44.32,70.62,44.32,18.48,0,36.4-5.59,51.83-16.17,10.59-7.45,11.67-12.92,11.67-33.05v-15.54c0-58.48-4.05-60.62-40.87-62.24l-9.94-.47v-7.34h121.62v7.34Z"/></g></g></svg>