<?xml version="1.0" encoding="UTF-8"?><svg id="Warstwa_2" xmlns="http://www.w3.org/2000/svg" viewBox="0 0 735.32 735.32"><defs><style>.cls-1{fill:#f3eddf;}.cls-2{fill:#183d89;}</style></defs><g id="Warstwa_1-2"><g><rect class="cls-2" width="735.32" height="735.32"/><g><path class="cls-1" d="M424.8,261.3c0-41.46-17.84-65.24-48.95-65.24h-49.7c-16.91,0-18.46,5.21-18.46,61.9v69h58.97c51.23,0,58.14-33.19,58.14-65.66Z"/><path class="cls-1" d="M490.22,124.83c-43.04,0-83.36-11.58-118.05-31.79-34.69,20.2-75.01,31.79-118.05,31.79s-83.19-11.53-117.82-31.65V393.69c0,129.63,106.07,235.7,235.7,235.7h0c129.64,0,235.7-106.07,235.7-235.7V93.38c-34.56,20-74.68,31.45-117.47,31.45Zm33.3,342.08c-4.35,2.53-7.47,4.02-11.8,4.83v.27s-1.1,.1-1.1,.1c-1.4,.12-3.61,.31-6.3,.48-4.57,.31-10.45,.58-19.97,.58-5.43,0-12.05-.09-20.29-.32h-.15c-12.28-.34-23.35-7.36-28.89-18.32-2.83-5.59-5.85-11.38-9.25-17.68-2.74-5.06-5.89-11.11-9.24-17.5-6.67-12.76-14.23-27.22-19.55-35.9-23.54-40.88-34.19-49.14-63.32-49.14h-25.98v68.16c0,58.9,4.11,61.12,23.52,61.9l9.89,.47v7.3h-103.41v-7.3l9.88-.47c19.42-.78,23.53-2.99,23.53-61.9v-144.51c0-58.9-4.11-61.12-23.52-61.9l-9.89-.47v-7.3h136.49c25.25,0,48.09,6.4,64.32,18.02,17.98,12.87,27.48,31.6,27.48,54.15,0,29.05-18.37,54.27-47.94,65.83-17.55,6.48-33.45,8-48.12,8.09,32.61,10.73,49.09,23.23,65.38,48.67,6.77,10.76,17.39,28.81,21.93,36.52l.65,1.11c16.22,26.36,29.41,42.88,44.99,43.7l6.61,.37c9.59-.33,18.67-4.42,24.95-11.22l1.83,1.45c-3.33,4.89-7.73,9.02-12.74,11.95Z"/></g></g></g></svg>