<?xml version="1.0" encoding="UTF-8"?><svg id="Warstwa_2" xmlns="http://www.w3.org/2000/svg" viewBox="0 0 735.32 735.32"><defs><style>.cls-1{fill:#195b43;}.cls-2{fill:#f3eddf;}</style></defs><g id="Warstwa_1-2"><g><rect class="cls-1" width="735.32" height="735.32"/><path class="cls-2" d="M487.02,127.7c-43.45,0-84.17-11.69-119.19-32.09-35.02,20.4-75.74,32.09-119.19,32.09s-83.99-11.64-118.96-31.96V399.15c0,130.88,107.09,237.97,237.97,237.97h0c130.88,0,237.97-107.09,237.97-237.97V95.95c-34.89,20.19-75.4,31.75-118.6,31.75Zm-44.43,345.11c-17.04,13.63-40.79,21.14-66.89,21.14-21.39,0-38.52-5-57.27-16.72-6.2-4.13-8.87-5.2-13.02-5.2-9.24,0-17.92,10.3-25.91,21.42l-.35,.49h-5.09v-93.73h5.76l5.23,16.11c10.6,32.23,40.59,69.88,90.25,69.88,38.61,0,61.66-19.81,61.66-52.98,0-39.56-35.04-55.86-72.14-73.12-38.92-18.1-79.17-36.83-79.17-84.4,0-41.92,34.46-73.53,80.15-73.53,15.89,0,31.53,4.37,46.48,12.97,.9,.51,1.74,1.01,2.54,1.48,4.25,2.5,7.06,4.15,10.93,4.15,6.38,0,12.52-4.92,22.63-18.14l.35-.46h5.07v81.33h-5.76l-4.81-14.87c-11.02-34.57-42.18-58.72-75.78-58.72s-51.33,16.25-51.33,43.47c0,40.28,35.14,57.09,72.34,74.9,39.84,19.07,81.04,38.79,81.04,89.24,0,21.77-9.55,41.41-26.9,55.29Z"/></g></g></svg>